# Blender v2.77 (sub 0) OBJ File: 'Stone Blocks.blend'
# www.blender.org
mtllib Stone Block 2.mtl
o Cylinder
v 0.000000 0.000000 -1.000000
v 0.000000 2.000000 -1.000000
v 0.587785 0.000000 -0.809017
v 0.587785 2.000000 -0.809017
v 0.951057 0.000000 -0.309017
v 0.951057 2.000000 -0.309017
v 0.951056 0.000000 0.309017
v 0.951056 2.000000 0.309017
v 0.587785 0.000000 0.809017
v 0.587785 2.000000 0.809017
v -0.000000 0.000000 1.000000
v -0.000000 2.000000 1.000000
v -0.587785 0.000000 0.809017
v -0.587785 2.000000 0.809017
v -0.951056 0.000000 0.309017
v -0.951056 2.000000 0.309017
v -0.951056 0.000000 -0.309017
v -0.951056 2.000000 -0.309017
v -0.587785 0.000000 -0.809017
v -0.587785 2.000000 -0.809017
vt 0.3390 0.7130
vt 0.3390 0.3565
vt 0.4492 0.3565
vt 0.4492 0.7130
vt 0.1102 0.7130
vt 0.1102 0.3565
vt 0.2203 0.3565
vt 0.2203 0.7130
vt 0.7797 0.3565
vt 0.7797 0.7130
vt 0.6695 0.7130
vt 0.6695 0.3565
vt 0.5594 0.3565
vt 0.5594 0.7130
vt 0.4492 0.7130
vt 0.4492 0.3565
vt 0.5594 0.7130
vt 0.5594 0.3565
vt 0.6695 0.3565
vt 0.6695 0.7130
vt 0.8898 0.3565
vt 0.8898 0.7130
vt 0.7797 0.7130
vt 0.7797 0.3565
vt 0.6781 0.3565
vt 0.6781 0.0000
vt 0.7882 0.0000
vt 0.7882 0.3565
vt 0.2203 0.7130
vt 0.2203 0.3565
vt 0.3305 0.3565
vt 0.3305 0.7130
vt 0.5086 0.0000
vt 0.6133 0.0340
vt 0.6781 0.1232
vt 0.6781 0.2333
vt 0.6133 0.3224
vt 0.5086 0.3565
vt 0.4038 0.3224
vt 0.3390 0.2333
vt 0.3390 0.1232
vt 0.4038 0.0340
vt 0.0000 0.7130
vt 0.0000 0.3565
vt 0.1102 0.3565
vt 0.1102 0.7130
vt 0.8898 0.7130
vt 0.8898 0.3565
vt 1.0000 0.3565
vt 1.0000 0.7130
vt 0.2743 0.3224
vt 0.1695 0.3565
vt 0.0648 0.3224
vt 0.0000 0.2333
vt 0.0000 0.1232
vt 0.0648 0.0340
vt 0.1695 0.0000
vt 0.2743 0.0340
vt 0.3390 0.1232
vt 0.3390 0.2333
vn 0.0000 -0.6437 -0.7653
vn 0.0000 0.6437 -0.7653
vn 0.4498 0.6437 -0.6191
vn 0.4498 -0.6437 -0.6191
vn 0.7278 0.6437 -0.2365
vn 0.7278 -0.6437 -0.2365
vn 0.7278 0.6437 0.2365
vn 0.7278 -0.6437 0.2365
vn 0.4498 0.6437 0.6191
vn 0.4498 -0.6437 0.6191
vn 0.0000 0.6437 0.7653
vn 0.0000 -0.6437 0.7653
vn -0.4498 0.6437 0.6191
vn -0.4498 -0.6437 0.6191
vn -0.7278 0.6437 0.2365
vn -0.7278 -0.6437 0.2365
vn -0.7278 0.6437 -0.2365
vn -0.7278 -0.6437 -0.2365
vn -0.4498 0.6437 -0.6191
vn -0.4498 -0.6437 -0.6191
usemtl Material.001
s 1
f 1/1/1 2/2/2 4/3/3 3/4/4
f 3/5/4 4/6/3 6/7/5 5/8/6
f 5/9/6 6/10/5 8/11/7 7/12/8
f 7/13/8 8/14/7 10/15/9 9/16/10
f 9/17/10 10/18/9 12/19/11 11/20/12
f 11/21/12 12/22/11 14/23/13 13/24/14
f 13/25/14 14/26/13 16/27/15 15/28/16
f 15/29/16 16/30/15 18/31/17 17/32/18
f 4/33/3 2/34/2 20/35/19 18/36/17 16/37/15 14/38/13 12/39/11 10/40/9 8/41/7 6/42/5
f 17/43/18 18/44/17 20/45/19 19/46/20
f 19/47/20 20/48/19 2/49/2 1/50/1
f 1/51/1 3/52/4 5/53/6 7/54/8 9/55/10 11/56/12 13/57/14 15/58/16 17/59/18 19/60/20
